<?xml version="1.0" encoding="utf-8"?>
<!-- Generator: Adobe Illustrator 25.2.1, SVG Export Plug-In . SVG Version: 6.00 Build 0)  -->
<svg version="1.1" id="Layer_1" xmlns="http://www.w3.org/2000/svg" xmlns:xlink="http://www.w3.org/1999/xlink" x="0px" y="0px"
	 viewBox="0 0 150 150" style="enable-background:new 0 0 150 150;" xml:space="preserve">
<style type="text/css">
	.st0{fill:#EFA100;}
	.st1{display:none;}
	.st2{display:none;fill:#FFFFFF;}
	.st3{fill:#008080;}
	.st4{fill:#7D7D7D;}
	.st5{fill:#FFFFFF;}
	.st6{fill:#C71D52;}
	.st7{fill:#00A9E8;}
	.st8{fill:#7DBD3F;}
	.st9{opacity:0.15;fill:#EFA100;}
	.st10{fill:#3C3C3B;}
	.st11{fill:#312783;}
	.st12{display:inline;fill:#FFFFFF;}
</style>
<g>
	<path class="st6" d="M40.56,107.87H75v34.44H37.81c-16.63,0-30.11-13.48-30.11-30.11V37.81c0-16.63,13.48-30.11,30.11-30.11h104.5
		v34.04H40.56V107.87z"/>
	<polygon class="st0" points="142.31,75 124.97,75 124.97,57.66 92.34,57.66 92.34,75 75,75 75,107.63 92.34,107.63 92.34,124.97 
		124.97,124.97 124.97,107.63 142.31,107.63 	"/>
	<g>
		<path class="st5" d="M96.08,80.45h10.53v21.74H96.08c-6.01,0-10.87-4.86-10.87-10.87c0-3,1.21-5.72,3.18-7.69
			C90.36,81.67,93.08,80.45,96.08,80.45z"/>
		<path class="st5" d="M110.69,102.19V80.45h10.53c6.01,0,10.87,4.86,10.87,10.87s-4.86,10.87-10.87,10.87H110.69z"/>
	</g>
</g>
</svg>
